<svg xmlns="http://www.w3.org/2000/svg" xmlns:xlink="http://www.w3.org/1999/xlink" width="144" height="46.242" viewBox="0 0 144 46.242">
  <defs>
    <clipPath id="clip-path">
      <rect id="Rectángulo_5550" data-name="Rectángulo 5550" width="144" height="46.242" fill="#176bfc"/>
    </clipPath>
  </defs>
  <g id="LOGO_ARTUG" data-name="LOGO ARTUG" clip-path="url(#clip-path)">
    <path id="Trazado_20175" data-name="Trazado 20175" d="M190.78,49.475V54H194.3v3.624H190.78v5.727c0,1.909.453,2.783,1.939,2.783a8.024,8.024,0,0,0,1.454-.13l.032,3.721a9.62,9.62,0,0,1-3.2.421,5.107,5.107,0,0,1-3.684-1.359c-.9-.938-1.357-2.459-1.357-4.691V57.629h-2.1V54h2.1v-3.43Z" transform="translate(-112.867 -30.348)" fill="#176bfc"/>
    <path id="Trazado_20176" data-name="Trazado 20176" d="M233.059,71.934c0,2.071.065,3.753.129,5.08h-4.266l-.226-2.233h-.1a5.634,5.634,0,0,1-4.944,2.589c-3.2,0-5.559-2.007-5.559-6.892V61.191h4.945V69.7c0,2.3.743,3.689,2.456,3.689a2.644,2.644,0,0,0,2.456-1.715,2.749,2.749,0,0,0,.161-1.068V61.191h4.945Z" transform="translate(-133.881 -37.534)" fill="#176bfc"/>
    <path id="Trazado_20177" data-name="Trazado 20177" d="M280.715,60.627c-.064,1-.129,2.33-.129,4.691v8.834c0,3.041-.614,5.533-2.392,7.119a9.741,9.741,0,0,1-6.431,1.941,12.3,12.3,0,0,1-5.687-1.23l.969-3.721a9.708,9.708,0,0,0,4.589,1.2c2.326,0,4.1-1.261,4.1-4.174V74.25h-.064a5.052,5.052,0,0,1-4.266,2.071c-3.91,0-6.69-3.171-6.69-7.733,0-5.08,3.3-8.316,7.174-8.316a4.764,4.764,0,0,1,4.331,2.233h.064l.161-1.877Zm-5.041,6.439a3.886,3.886,0,0,0-.1-.906,2.7,2.7,0,0,0-2.65-2.168c-1.778,0-3.232,1.618-3.232,4.5,0,2.362,1.163,4.206,3.232,4.206a2.668,2.668,0,0,0,2.585-2.006,4.183,4.183,0,0,0,.162-1.294Z" transform="translate(-162.5 -36.97)" fill="#176bfc"/>
    <path id="Trazado_20178" data-name="Trazado 20178" d="M80.952,61.919l-1.551,5.6H74.295l6.657-21.809h6.464L94.17,67.517h-5.3l-1.68-5.6Zm5.526-3.689L85.122,53.6c-.388-1.294-.776-2.912-1.1-4.207h-.064c-.323,1.294-.646,2.945-1,4.207L81.664,58.23Z" transform="translate(-45.607 -28.037)" fill="#176bfc"/>
    <path id="Trazado_20179" data-name="Trazado 20179" d="M133.3,45.744a43.263,43.263,0,0,1,6.56-.453c3.232,0,5.494.485,7.045,1.715a5.539,5.539,0,0,1,2,4.562,5.787,5.787,0,0,1-3.846,5.371v.1c1.519.615,2.359,2.071,2.908,4.077.679,2.459,1.358,5.307,1.778,6.148h-5.042a27.306,27.306,0,0,1-1.519-5.08c-.582-2.718-1.519-3.463-3.523-3.495h-1.487v8.575H133.3Zm4.88,9.383h1.939c2.456,0,3.91-1.229,3.91-3.138,0-2.006-1.357-3.009-3.62-3.041a12.252,12.252,0,0,0-2.23.162Z" transform="translate(-81.83 -27.781)" fill="#176bfc"/>
    <path id="Trazado_20180" data-name="Trazado 20180" d="M142.339,22.236C124.852,8.687,100.355,0,73.053,0,48.552,0,26.224,6.885,9.341,18.19l0,0-.056.036v0c-2.667,1.7-5.225,3.483-7.634,5.375C.182,24.755-.216,25.267.1,25.412c.339.1,1.1-.642,1.975-1.241,2.292-1.562,4.7-3.03,7.206-4.414v.008C26.71,9.994,48.888,4.131,73.053,4.131c26.582,0,51.025,6.7,68.862,18.676.883.593,1.644,1.33,1.983,1.227.316-.147-.085-.655-1.56-1.8" transform="translate(0 0.001)" fill="#176bfc"/>
  </g>
</svg>
