<svg xmlns="http://www.w3.org/2000/svg" xmlns:xlink="http://www.w3.org/1999/xlink" width="241" height="77.392" viewBox="0 0 241 77.392">
  <defs>
    <clipPath id="clip-path">
      <rect id="Rectángulo_592" data-name="Rectángulo 592" width="241" height="77.392" fill="#fff"/>
    </clipPath>
  </defs>
  <g id="LOGO_ARTUG" data-name="LOGO ARTUG" clip-path="url(#clip-path)">
    <path id="Trazado_7" data-name="Trazado 7" d="M195.438,49.475v7.581h5.9v6.065h-5.9v9.585c0,3.2.757,4.657,3.245,4.657a13.426,13.426,0,0,0,2.434-.217l.054,6.228a16.1,16.1,0,0,1-5.355.7,8.546,8.546,0,0,1-6.166-2.274c-1.514-1.57-2.272-4.116-2.272-7.852V63.122h-3.516V57.056h3.516v-5.74Z" transform="translate(-65.043 -17.463)" fill="#fff"/>
    <path id="Trazado_8" data-name="Trazado 8" d="M243.139,79.171c0,3.465.108,6.281.216,8.5h-7.14l-.379-3.737h-.162a9.43,9.43,0,0,1-8.275,4.333c-5.355,0-9.3-3.358-9.3-11.535V61.191h8.276V75.434c0,3.845,1.244,6.173,4.111,6.173a4.425,4.425,0,0,0,4.11-2.87,4.6,4.6,0,0,0,.27-1.787V61.191h8.276Z" transform="translate(-77.153 -21.599)" fill="#fff"/>
    <path id="Trazado_9" data-name="Trazado 9" d="M291.491,60.867c-.108,1.678-.216,3.9-.216,7.852V83.5c0,5.09-1.028,9.26-4,11.914-2.92,2.49-6.869,3.249-10.763,3.249a20.587,20.587,0,0,1-9.519-2.058l1.622-6.228a16.246,16.246,0,0,0,7.681,2c3.894,0,6.869-2.111,6.869-6.985V83.666h-.108a8.455,8.455,0,0,1-7.14,3.465c-6.545,0-11.2-5.307-11.2-12.943,0-8.5,5.517-13.918,12.007-13.918a7.974,7.974,0,0,1,7.248,3.737h.108l.27-3.141Zm-8.437,10.776a6.5,6.5,0,0,0-.163-1.517,4.51,4.51,0,0,0-4.435-3.628c-2.975,0-5.409,2.707-5.409,7.528,0,3.953,1.947,7.04,5.409,7.04a4.466,4.466,0,0,0,4.327-3.357,7,7,0,0,0,.271-2.166Z" transform="translate(-93.646 -21.274)" fill="#fff"/>
    <path id="Trazado_10" data-name="Trazado 10" d="M85.437,72.839l-2.6,9.368H74.3l11.142-36.5H96.254l11.3,36.5h-8.87l-2.812-9.368Zm9.249-6.174-2.272-7.744c-.649-2.166-1.3-4.874-1.839-7.04h-.108c-.541,2.166-1.082,4.928-1.677,7.04l-2.163,7.744Z" transform="translate(-26.282 -16.134)" fill="#fff"/>
    <path id="Trazado_11" data-name="Trazado 11" d="M133.3,46.049a72.406,72.406,0,0,1,10.98-.758c5.409,0,9.195.812,11.791,2.87a9.271,9.271,0,0,1,3.353,7.636,9.685,9.685,0,0,1-6.437,8.989v.162c2.542,1.029,3.949,3.466,4.868,6.824,1.136,4.116,2.272,8.881,2.975,10.289H152.4c-.595-1.029-1.461-4.007-2.542-8.5-.974-4.549-2.542-5.8-5.9-5.849h-2.488V82.06H133.3Zm8.167,15.7h3.245c4.11,0,6.545-2.058,6.545-5.253,0-3.357-2.272-5.036-6.058-5.09a20.505,20.505,0,0,0-3.732.271Z" transform="translate(-47.157 -15.986)" fill="#fff"/>
    <path id="Trazado_12" data-name="Trazado 12" d="M238.22,37.215C208.955,14.54,167.955,0,122.263,0c-41,0-78.373,11.525-106.63,30.445l0,0c-.03.02-.063.039-.093.06v0c-4.464,2.839-8.745,5.83-12.776,9C.3,41.432-.361,42.288.17,42.53.739,42.7,2,41.456,3.476,40.453c3.836-2.613,7.869-5.071,12.06-7.386v.014C44.7,16.727,81.819,6.914,122.263,6.914c44.489,0,85.4,11.205,115.249,31.256,1.479.993,2.752,2.225,3.319,2.054.529-.246-.142-1.1-2.61-3.009" transform="translate(0 0)" fill="#fff"/>
  </g>
</svg>
